# xmcd CD database file
#
# Track frame offsets:
#	183
#	7450
#	13665
#	26493
#	37440
#	43400
#	51248
#	59800
#	73518
#	83793
#	89873
#	106370
#
# Disc length: 1507 seconds
#
# Revision: 0
# Processed by: cddbd v1.5.2PL0 Copyright (c) Steve Scherf et al.
# Submitted via: CDex 1.82
#
DISCID=b805e10c
DTITLE=Gabriel Bock - All time standards
DYEAR=1990
DGENRE=Jazz
TTITLE0=Satin Doll
TTITLE1=The Girl from Ipanema
TTITLE2=Feelings
TTITLE3=Autumn Leaves
TTITLE4=Someday my Prince will come
TTITLE5=Misty
TTITLE6=Body and Soul
TTITLE7=Yesterday
TTITLE8=I can't give you anything but Love
TTITLE9=One Note Samba
TTITLE10=Sophisticated Lady
TTITLE11=Waltz for Debby
EXTD=YEAR: 1990
EXTT0=
EXTT1=
EXTT2=
EXTT3=
EXTT4=
EXTT5=
EXTT6=
EXTT7=
EXTT8=
EXTT9=
EXTT10=
EXTT11=
PLAYORDER=
